<svg xmlns="http://www.w3.org/2000/svg" width="510.001" height="263.787" viewBox="0 0 510.001 263.787">
  <g id="witness" transform="translate(0.001 -123.107)">
    <path id="Tracé_1" data-name="Tracé 1" d="M506.6,245.486C460.244,189.012,362.107,123.107,255,123.107c-107.491,0-205.632,66.353-251.6,122.379a15,15,0,0,0,0,19.028c47.452,57.84,145.819,122.38,251.6,122.38,109.537,0,207.256-68.357,251.6-122.379A15,15,0,0,0,506.6,245.486ZM356.893,255A101.894,101.894,0,1,1,255,153.106,102.009,102.009,0,0,1,356.893,255ZM35.262,255C52.145,237.457,92.853,199.588,150,175.283a131.554,131.554,0,0,0-.017,159.412C106.532,316.28,66.17,287.186,35.262,255ZM360,334.717a131.556,131.556,0,0,0,.017-159.412c43.447,18.415,83.81,47.51,114.719,79.69C457.855,272.544,417.147,310.411,360,334.717Z" fill="#075739"/>
    <path id="Tracé_2" data-name="Tracé 2" d="M204,255a51,51,0,1,0,51-51A51.057,51.057,0,0,0,204,255Z" fill="#075739"/>
    <path id="Tracé_7" data-name="Tracé 7" d="M138.988,423.876c-2.7-1.892-6.128-.737-7.666,2.581L123.843,442.6c-1.538,3.318-.6,7.542,2.1,9.435s6.128.736,7.666-2.581l7.479-16.139C142.623,429.993,141.684,425.768,138.988,423.876Z" transform="translate(678.548 20.902) rotate(81)" fill="#fff"/>
  </g>
</svg>
